<mxfile host="app.diagrams.net" modified="2023-07-26T19:55:53.213Z" agent="Mozilla/5.0 (Windows NT 10.0; Win64; x64) AppleWebKit/537.36 (KHTML, like Gecko) Chrome/115.0.0.0 Safari/537.36" etag="q0qCi4_qSmUCMT_vbIjo" version="21.6.5" type="device">
  <diagram id="RX0N-pSOHXhckrcNFLdA" name="Página-2">
    <mxGraphModel dx="3563" dy="940" grid="1" gridSize="10" guides="1" tooltips="1" connect="1" arrows="1" fold="1" page="1" pageScale="1" pageWidth="1654" pageHeight="1169" math="0" shadow="0">
      <root>
        <mxCell id="0" />
        <mxCell id="1" parent="0" />
        <mxCell id="58X_1UOyd4O7PZKYkvHO-9" style="edgeStyle=orthogonalEdgeStyle;rounded=0;orthogonalLoop=1;jettySize=auto;html=1;exitX=1;exitY=0.5;exitDx=0;exitDy=0;entryX=0;entryY=0.5;entryDx=0;entryDy=0;endArrow=none;endFill=0;" parent="1" source="58X_1UOyd4O7PZKYkvHO-1" target="58X_1UOyd4O7PZKYkvHO-3" edge="1">
          <mxGeometry relative="1" as="geometry" />
        </mxCell>
        <mxCell id="58X_1UOyd4O7PZKYkvHO-25" style="edgeStyle=orthogonalEdgeStyle;rounded=0;orthogonalLoop=1;jettySize=auto;html=1;exitX=0.5;exitY=0;exitDx=0;exitDy=0;entryX=0.5;entryY=1;entryDx=0;entryDy=0;endArrow=none;endFill=0;" parent="1" source="58X_1UOyd4O7PZKYkvHO-1" target="58X_1UOyd4O7PZKYkvHO-24" edge="1">
          <mxGeometry relative="1" as="geometry" />
        </mxCell>
        <mxCell id="58X_1UOyd4O7PZKYkvHO-1" value="Pessoa" style="rounded=0;whiteSpace=wrap;html=1;" parent="1" vertex="1">
          <mxGeometry x="-1280" y="300" width="120" height="60" as="geometry" />
        </mxCell>
        <mxCell id="58X_1UOyd4O7PZKYkvHO-2" value="Telefone" style="rounded=0;whiteSpace=wrap;html=1;" parent="1" vertex="1">
          <mxGeometry x="-1030" y="300" width="120" height="60" as="geometry" />
        </mxCell>
        <mxCell id="58X_1UOyd4O7PZKYkvHO-8" style="edgeStyle=orthogonalEdgeStyle;rounded=0;orthogonalLoop=1;jettySize=auto;html=1;exitX=1;exitY=0.5;exitDx=0;exitDy=0;endArrow=none;endFill=0;" parent="1" source="58X_1UOyd4O7PZKYkvHO-3" target="58X_1UOyd4O7PZKYkvHO-2" edge="1">
          <mxGeometry relative="1" as="geometry" />
        </mxCell>
        <mxCell id="58X_1UOyd4O7PZKYkvHO-3" value="Possui" style="rhombus;whiteSpace=wrap;html=1;" parent="1" vertex="1">
          <mxGeometry x="-1140" y="290" width="80" height="80" as="geometry" />
        </mxCell>
        <mxCell id="58X_1UOyd4O7PZKYkvHO-10" value="1" style="text;html=1;align=center;verticalAlign=middle;resizable=0;points=[];autosize=1;strokeColor=none;fillColor=none;" parent="1" vertex="1">
          <mxGeometry x="-1160" y="300" width="30" height="30" as="geometry" />
        </mxCell>
        <mxCell id="58X_1UOyd4O7PZKYkvHO-11" value="N" style="text;html=1;align=center;verticalAlign=middle;resizable=0;points=[];autosize=1;strokeColor=none;fillColor=none;" parent="1" vertex="1">
          <mxGeometry x="-1060" y="300" width="30" height="30" as="geometry" />
        </mxCell>
        <mxCell id="58X_1UOyd4O7PZKYkvHO-23" value="1" style="text;html=1;align=center;verticalAlign=middle;resizable=0;points=[];autosize=1;strokeColor=none;fillColor=none;" parent="1" vertex="1">
          <mxGeometry x="-1160" y="330" width="30" height="30" as="geometry" />
        </mxCell>
        <mxCell id="58X_1UOyd4O7PZKYkvHO-24" value="Nome" style="ellipse;whiteSpace=wrap;html=1;" parent="1" vertex="1">
          <mxGeometry x="-1280" y="230" width="120" height="40" as="geometry" />
        </mxCell>
        <mxCell id="MNgoz-aD6NBFcYONtAF8-3" style="edgeStyle=orthogonalEdgeStyle;rounded=0;orthogonalLoop=1;jettySize=auto;html=1;entryX=0.002;entryY=0.633;entryDx=0;entryDy=0;entryPerimeter=0;exitX=0.5;exitY=1;exitDx=0;exitDy=0;endArrow=none;endFill=0;" parent="1" source="58X_1UOyd4O7PZKYkvHO-26" target="58X_1UOyd4O7PZKYkvHO-1" edge="1">
          <mxGeometry relative="1" as="geometry" />
        </mxCell>
        <mxCell id="58X_1UOyd4O7PZKYkvHO-26" value="CNH" style="ellipse;whiteSpace=wrap;html=1;" parent="1" vertex="1">
          <mxGeometry x="-1410" y="270" width="120" height="40" as="geometry" />
        </mxCell>
        <mxCell id="QtggETcATfSxz_s04TcV-1" value="Construa a modelagem que represente pessoas e seus dados, observando que:&#xa;&#xa;&#xa;- uma pessoa pode ter vários telefones e vários emails, porém, pode possuir somente uma CNH." style="text;whiteSpace=wrap;" parent="1" vertex="1">
          <mxGeometry x="-1221" y="70" width="560" height="80" as="geometry" />
        </mxCell>
        <mxCell id="MNgoz-aD6NBFcYONtAF8-2" value="Email" style="rounded=0;whiteSpace=wrap;html=1;" parent="1" vertex="1">
          <mxGeometry x="-1280" y="480" width="120" height="60" as="geometry" />
        </mxCell>
        <mxCell id="MNgoz-aD6NBFcYONtAF8-5" style="edgeStyle=orthogonalEdgeStyle;rounded=0;orthogonalLoop=1;jettySize=auto;html=1;entryX=0.5;entryY=1;entryDx=0;entryDy=0;endArrow=none;endFill=0;" parent="1" source="MNgoz-aD6NBFcYONtAF8-4" target="58X_1UOyd4O7PZKYkvHO-1" edge="1">
          <mxGeometry relative="1" as="geometry" />
        </mxCell>
        <mxCell id="MNgoz-aD6NBFcYONtAF8-6" style="edgeStyle=orthogonalEdgeStyle;rounded=0;orthogonalLoop=1;jettySize=auto;html=1;exitX=0.5;exitY=1;exitDx=0;exitDy=0;entryX=0.5;entryY=0;entryDx=0;entryDy=0;endArrow=none;endFill=0;" parent="1" source="MNgoz-aD6NBFcYONtAF8-4" target="MNgoz-aD6NBFcYONtAF8-2" edge="1">
          <mxGeometry relative="1" as="geometry" />
        </mxCell>
        <mxCell id="MNgoz-aD6NBFcYONtAF8-4" value="Possui" style="rhombus;whiteSpace=wrap;html=1;" parent="1" vertex="1">
          <mxGeometry x="-1260" y="370" width="80" height="80" as="geometry" />
        </mxCell>
        <mxCell id="MNgoz-aD6NBFcYONtAF8-7" value="1" style="text;html=1;align=center;verticalAlign=middle;resizable=0;points=[];autosize=1;strokeColor=none;fillColor=none;" parent="1" vertex="1">
          <mxGeometry x="-1220" y="360" width="30" height="30" as="geometry" />
        </mxCell>
        <mxCell id="MNgoz-aD6NBFcYONtAF8-8" value="N" style="text;html=1;align=center;verticalAlign=middle;resizable=0;points=[];autosize=1;strokeColor=none;fillColor=none;" parent="1" vertex="1">
          <mxGeometry x="-1220" y="450" width="30" height="30" as="geometry" />
        </mxCell>
        <mxCell id="_lssu2MTOu9yrgDferpI-1" value="Telefone" style="shape=table;startSize=30;container=1;collapsible=1;childLayout=tableLayout;fixedRows=1;rowLines=0;fontStyle=1;align=center;resizeLast=1;html=1;" vertex="1" parent="1">
          <mxGeometry x="-781" y="230" width="180" height="120" as="geometry" />
        </mxCell>
        <mxCell id="_lssu2MTOu9yrgDferpI-2" value="" style="shape=tableRow;horizontal=0;startSize=0;swimlaneHead=0;swimlaneBody=0;fillColor=none;collapsible=0;dropTarget=0;points=[[0,0.5],[1,0.5]];portConstraint=eastwest;top=0;left=0;right=0;bottom=1;" vertex="1" parent="_lssu2MTOu9yrgDferpI-1">
          <mxGeometry y="30" width="180" height="30" as="geometry" />
        </mxCell>
        <mxCell id="_lssu2MTOu9yrgDferpI-3" value="PK" style="shape=partialRectangle;connectable=0;fillColor=none;top=0;left=0;bottom=0;right=0;fontStyle=1;overflow=hidden;whiteSpace=wrap;html=1;" vertex="1" parent="_lssu2MTOu9yrgDferpI-2">
          <mxGeometry width="30" height="30" as="geometry">
            <mxRectangle width="30" height="30" as="alternateBounds" />
          </mxGeometry>
        </mxCell>
        <mxCell id="_lssu2MTOu9yrgDferpI-4" value="IdTelefone" style="shape=partialRectangle;connectable=0;fillColor=none;top=0;left=0;bottom=0;right=0;align=left;spacingLeft=6;fontStyle=5;overflow=hidden;whiteSpace=wrap;html=1;" vertex="1" parent="_lssu2MTOu9yrgDferpI-2">
          <mxGeometry x="30" width="150" height="30" as="geometry">
            <mxRectangle width="150" height="30" as="alternateBounds" />
          </mxGeometry>
        </mxCell>
        <mxCell id="_lssu2MTOu9yrgDferpI-73" style="shape=tableRow;horizontal=0;startSize=0;swimlaneHead=0;swimlaneBody=0;fillColor=none;collapsible=0;dropTarget=0;points=[[0,0.5],[1,0.5]];portConstraint=eastwest;top=0;left=0;right=0;bottom=1;" vertex="1" parent="_lssu2MTOu9yrgDferpI-1">
          <mxGeometry y="60" width="180" height="30" as="geometry" />
        </mxCell>
        <mxCell id="_lssu2MTOu9yrgDferpI-74" value="FK" style="shape=partialRectangle;connectable=0;fillColor=none;top=0;left=0;bottom=0;right=0;fontStyle=1;overflow=hidden;whiteSpace=wrap;html=1;" vertex="1" parent="_lssu2MTOu9yrgDferpI-73">
          <mxGeometry width="30" height="30" as="geometry">
            <mxRectangle width="30" height="30" as="alternateBounds" />
          </mxGeometry>
        </mxCell>
        <mxCell id="_lssu2MTOu9yrgDferpI-75" value="IdPessoa" style="shape=partialRectangle;connectable=0;fillColor=none;top=0;left=0;bottom=0;right=0;align=left;spacingLeft=6;fontStyle=5;overflow=hidden;whiteSpace=wrap;html=1;" vertex="1" parent="_lssu2MTOu9yrgDferpI-73">
          <mxGeometry x="30" width="150" height="30" as="geometry">
            <mxRectangle width="150" height="30" as="alternateBounds" />
          </mxGeometry>
        </mxCell>
        <mxCell id="_lssu2MTOu9yrgDferpI-5" value="" style="shape=tableRow;horizontal=0;startSize=0;swimlaneHead=0;swimlaneBody=0;fillColor=none;collapsible=0;dropTarget=0;points=[[0,0.5],[1,0.5]];portConstraint=eastwest;top=0;left=0;right=0;bottom=0;" vertex="1" parent="_lssu2MTOu9yrgDferpI-1">
          <mxGeometry y="90" width="180" height="30" as="geometry" />
        </mxCell>
        <mxCell id="_lssu2MTOu9yrgDferpI-6" value="" style="shape=partialRectangle;connectable=0;fillColor=none;top=0;left=0;bottom=0;right=0;editable=1;overflow=hidden;whiteSpace=wrap;html=1;" vertex="1" parent="_lssu2MTOu9yrgDferpI-5">
          <mxGeometry width="30" height="30" as="geometry">
            <mxRectangle width="30" height="30" as="alternateBounds" />
          </mxGeometry>
        </mxCell>
        <mxCell id="_lssu2MTOu9yrgDferpI-7" value="Numero" style="shape=partialRectangle;connectable=0;fillColor=none;top=0;left=0;bottom=0;right=0;align=left;spacingLeft=6;overflow=hidden;whiteSpace=wrap;html=1;" vertex="1" parent="_lssu2MTOu9yrgDferpI-5">
          <mxGeometry x="30" width="150" height="30" as="geometry">
            <mxRectangle width="150" height="30" as="alternateBounds" />
          </mxGeometry>
        </mxCell>
        <mxCell id="_lssu2MTOu9yrgDferpI-15" style="edgeStyle=orthogonalEdgeStyle;rounded=0;orthogonalLoop=1;jettySize=auto;html=1;exitX=0.5;exitY=1;exitDx=0;exitDy=0;entryX=0.5;entryY=0;entryDx=0;entryDy=0;endArrow=none;endFill=0;" edge="1" parent="1" source="_lssu2MTOu9yrgDferpI-14" target="58X_1UOyd4O7PZKYkvHO-2">
          <mxGeometry relative="1" as="geometry" />
        </mxCell>
        <mxCell id="_lssu2MTOu9yrgDferpI-14" value="Numero" style="ellipse;whiteSpace=wrap;html=1;" vertex="1" parent="1">
          <mxGeometry x="-1030" y="230" width="120" height="40" as="geometry" />
        </mxCell>
        <mxCell id="_lssu2MTOu9yrgDferpI-16" value="Pessoa" style="shape=table;startSize=30;container=1;collapsible=1;childLayout=tableLayout;fixedRows=1;rowLines=0;fontStyle=1;align=center;resizeLast=1;html=1;whiteSpace=wrap;" vertex="1" parent="1">
          <mxGeometry x="-461" y="230" width="180" height="120" as="geometry" />
        </mxCell>
        <mxCell id="_lssu2MTOu9yrgDferpI-17" value="" style="shape=tableRow;horizontal=0;startSize=0;swimlaneHead=0;swimlaneBody=0;fillColor=none;collapsible=0;dropTarget=0;points=[[0,0.5],[1,0.5]];portConstraint=eastwest;top=0;left=0;right=0;bottom=0;html=1;" vertex="1" parent="_lssu2MTOu9yrgDferpI-16">
          <mxGeometry y="30" width="180" height="30" as="geometry" />
        </mxCell>
        <mxCell id="_lssu2MTOu9yrgDferpI-18" value="PK" style="shape=partialRectangle;connectable=0;fillColor=none;top=0;left=0;bottom=0;right=0;fontStyle=1;overflow=hidden;html=1;whiteSpace=wrap;" vertex="1" parent="_lssu2MTOu9yrgDferpI-17">
          <mxGeometry width="60" height="30" as="geometry">
            <mxRectangle width="60" height="30" as="alternateBounds" />
          </mxGeometry>
        </mxCell>
        <mxCell id="_lssu2MTOu9yrgDferpI-19" value="IdPessoa" style="shape=partialRectangle;connectable=0;fillColor=none;top=0;left=0;bottom=0;right=0;align=left;spacingLeft=6;fontStyle=5;overflow=hidden;html=1;whiteSpace=wrap;" vertex="1" parent="_lssu2MTOu9yrgDferpI-17">
          <mxGeometry x="60" width="120" height="30" as="geometry">
            <mxRectangle width="120" height="30" as="alternateBounds" />
          </mxGeometry>
        </mxCell>
        <mxCell id="_lssu2MTOu9yrgDferpI-23" value="" style="shape=tableRow;horizontal=0;startSize=0;swimlaneHead=0;swimlaneBody=0;fillColor=none;collapsible=0;dropTarget=0;points=[[0,0.5],[1,0.5]];portConstraint=eastwest;top=0;left=0;right=0;bottom=0;html=1;" vertex="1" parent="_lssu2MTOu9yrgDferpI-16">
          <mxGeometry y="60" width="180" height="30" as="geometry" />
        </mxCell>
        <mxCell id="_lssu2MTOu9yrgDferpI-24" value="" style="shape=partialRectangle;connectable=0;fillColor=none;top=0;left=0;bottom=0;right=0;editable=1;overflow=hidden;html=1;whiteSpace=wrap;" vertex="1" parent="_lssu2MTOu9yrgDferpI-23">
          <mxGeometry width="60" height="30" as="geometry">
            <mxRectangle width="60" height="30" as="alternateBounds" />
          </mxGeometry>
        </mxCell>
        <mxCell id="_lssu2MTOu9yrgDferpI-25" value="Nome" style="shape=partialRectangle;connectable=0;fillColor=none;top=0;left=0;bottom=0;right=0;align=left;spacingLeft=6;overflow=hidden;html=1;whiteSpace=wrap;" vertex="1" parent="_lssu2MTOu9yrgDferpI-23">
          <mxGeometry x="60" width="120" height="30" as="geometry">
            <mxRectangle width="120" height="30" as="alternateBounds" />
          </mxGeometry>
        </mxCell>
        <mxCell id="_lssu2MTOu9yrgDferpI-26" value="" style="shape=tableRow;horizontal=0;startSize=0;swimlaneHead=0;swimlaneBody=0;fillColor=none;collapsible=0;dropTarget=0;points=[[0,0.5],[1,0.5]];portConstraint=eastwest;top=0;left=0;right=0;bottom=0;html=1;" vertex="1" parent="_lssu2MTOu9yrgDferpI-16">
          <mxGeometry y="90" width="180" height="30" as="geometry" />
        </mxCell>
        <mxCell id="_lssu2MTOu9yrgDferpI-27" value="" style="shape=partialRectangle;connectable=0;fillColor=none;top=0;left=0;bottom=0;right=0;editable=1;overflow=hidden;html=1;whiteSpace=wrap;" vertex="1" parent="_lssu2MTOu9yrgDferpI-26">
          <mxGeometry width="60" height="30" as="geometry">
            <mxRectangle width="60" height="30" as="alternateBounds" />
          </mxGeometry>
        </mxCell>
        <mxCell id="_lssu2MTOu9yrgDferpI-28" value="CNH" style="shape=partialRectangle;connectable=0;fillColor=none;top=0;left=0;bottom=0;right=0;align=left;spacingLeft=6;overflow=hidden;html=1;whiteSpace=wrap;" vertex="1" parent="_lssu2MTOu9yrgDferpI-26">
          <mxGeometry x="60" width="120" height="30" as="geometry">
            <mxRectangle width="120" height="30" as="alternateBounds" />
          </mxGeometry>
        </mxCell>
        <mxCell id="_lssu2MTOu9yrgDferpI-36" value="" style="edgeStyle=entityRelationEdgeStyle;fontSize=12;html=1;endArrow=ERoneToMany;rounded=0;exitX=1;exitY=0.5;exitDx=0;exitDy=0;entryX=0;entryY=0.5;entryDx=0;entryDy=0;" edge="1" parent="1" source="_lssu2MTOu9yrgDferpI-2" target="_lssu2MTOu9yrgDferpI-49">
          <mxGeometry width="100" height="100" relative="1" as="geometry">
            <mxPoint x="-360" y="197.5" as="sourcePoint" />
            <mxPoint x="-220" y="280" as="targetPoint" />
            <Array as="points">
              <mxPoint x="-400" y="305" />
            </Array>
          </mxGeometry>
        </mxCell>
        <mxCell id="_lssu2MTOu9yrgDferpI-52" value="Email" style="shape=table;startSize=30;container=1;collapsible=1;childLayout=tableLayout;fixedRows=1;rowLines=0;fontStyle=1;align=center;resizeLast=1;html=1;" vertex="1" parent="1">
          <mxGeometry x="-781" y="380" width="180" height="120" as="geometry" />
        </mxCell>
        <mxCell id="_lssu2MTOu9yrgDferpI-53" value="" style="shape=tableRow;horizontal=0;startSize=0;swimlaneHead=0;swimlaneBody=0;fillColor=none;collapsible=0;dropTarget=0;points=[[0,0.5],[1,0.5]];portConstraint=eastwest;top=0;left=0;right=0;bottom=1;" vertex="1" parent="_lssu2MTOu9yrgDferpI-52">
          <mxGeometry y="30" width="180" height="30" as="geometry" />
        </mxCell>
        <mxCell id="_lssu2MTOu9yrgDferpI-54" value="PK" style="shape=partialRectangle;connectable=0;fillColor=none;top=0;left=0;bottom=0;right=0;fontStyle=1;overflow=hidden;whiteSpace=wrap;html=1;" vertex="1" parent="_lssu2MTOu9yrgDferpI-53">
          <mxGeometry width="30" height="30" as="geometry">
            <mxRectangle width="30" height="30" as="alternateBounds" />
          </mxGeometry>
        </mxCell>
        <mxCell id="_lssu2MTOu9yrgDferpI-55" value="IdEmail" style="shape=partialRectangle;connectable=0;fillColor=none;top=0;left=0;bottom=0;right=0;align=left;spacingLeft=6;fontStyle=5;overflow=hidden;whiteSpace=wrap;html=1;" vertex="1" parent="_lssu2MTOu9yrgDferpI-53">
          <mxGeometry x="30" width="150" height="30" as="geometry">
            <mxRectangle width="150" height="30" as="alternateBounds" />
          </mxGeometry>
        </mxCell>
        <mxCell id="_lssu2MTOu9yrgDferpI-76" style="shape=tableRow;horizontal=0;startSize=0;swimlaneHead=0;swimlaneBody=0;fillColor=none;collapsible=0;dropTarget=0;points=[[0,0.5],[1,0.5]];portConstraint=eastwest;top=0;left=0;right=0;bottom=1;" vertex="1" parent="_lssu2MTOu9yrgDferpI-52">
          <mxGeometry y="60" width="180" height="30" as="geometry" />
        </mxCell>
        <mxCell id="_lssu2MTOu9yrgDferpI-77" value="FK" style="shape=partialRectangle;connectable=0;fillColor=none;top=0;left=0;bottom=0;right=0;fontStyle=1;overflow=hidden;whiteSpace=wrap;html=1;" vertex="1" parent="_lssu2MTOu9yrgDferpI-76">
          <mxGeometry width="30" height="30" as="geometry">
            <mxRectangle width="30" height="30" as="alternateBounds" />
          </mxGeometry>
        </mxCell>
        <mxCell id="_lssu2MTOu9yrgDferpI-78" value="IdPessoa" style="shape=partialRectangle;connectable=0;fillColor=none;top=0;left=0;bottom=0;right=0;align=left;spacingLeft=6;fontStyle=5;overflow=hidden;whiteSpace=wrap;html=1;" vertex="1" parent="_lssu2MTOu9yrgDferpI-76">
          <mxGeometry x="30" width="150" height="30" as="geometry">
            <mxRectangle width="150" height="30" as="alternateBounds" />
          </mxGeometry>
        </mxCell>
        <mxCell id="_lssu2MTOu9yrgDferpI-56" value="" style="shape=tableRow;horizontal=0;startSize=0;swimlaneHead=0;swimlaneBody=0;fillColor=none;collapsible=0;dropTarget=0;points=[[0,0.5],[1,0.5]];portConstraint=eastwest;top=0;left=0;right=0;bottom=0;" vertex="1" parent="_lssu2MTOu9yrgDferpI-52">
          <mxGeometry y="90" width="180" height="30" as="geometry" />
        </mxCell>
        <mxCell id="_lssu2MTOu9yrgDferpI-57" value="" style="shape=partialRectangle;connectable=0;fillColor=none;top=0;left=0;bottom=0;right=0;editable=1;overflow=hidden;whiteSpace=wrap;html=1;" vertex="1" parent="_lssu2MTOu9yrgDferpI-56">
          <mxGeometry width="30" height="30" as="geometry">
            <mxRectangle width="30" height="30" as="alternateBounds" />
          </mxGeometry>
        </mxCell>
        <mxCell id="_lssu2MTOu9yrgDferpI-58" value="EndereçoEmail" style="shape=partialRectangle;connectable=0;fillColor=none;top=0;left=0;bottom=0;right=0;align=left;spacingLeft=6;overflow=hidden;whiteSpace=wrap;html=1;" vertex="1" parent="_lssu2MTOu9yrgDferpI-56">
          <mxGeometry x="30" width="150" height="30" as="geometry">
            <mxRectangle width="150" height="30" as="alternateBounds" />
          </mxGeometry>
        </mxCell>
        <mxCell id="_lssu2MTOu9yrgDferpI-66" style="edgeStyle=orthogonalEdgeStyle;rounded=0;orthogonalLoop=1;jettySize=auto;html=1;exitX=0.5;exitY=0;exitDx=0;exitDy=0;endArrow=none;endFill=0;" edge="1" parent="1" source="_lssu2MTOu9yrgDferpI-65" target="MNgoz-aD6NBFcYONtAF8-2">
          <mxGeometry relative="1" as="geometry" />
        </mxCell>
        <mxCell id="_lssu2MTOu9yrgDferpI-65" value="EndereçoEmail" style="ellipse;whiteSpace=wrap;html=1;" vertex="1" parent="1">
          <mxGeometry x="-1280" y="570" width="120" height="40" as="geometry" />
        </mxCell>
        <mxCell id="_lssu2MTOu9yrgDferpI-67" value="Conceitual" style="whiteSpace=wrap;html=1;fillColor=#f8cecc;strokeColor=#b85450;" vertex="1" parent="1">
          <mxGeometry x="-1171" y="180" width="100" height="30" as="geometry" />
        </mxCell>
        <mxCell id="_lssu2MTOu9yrgDferpI-68" value="Físico" style="whiteSpace=wrap;html=1;fillColor=#f8cecc;strokeColor=#b85450;" vertex="1" parent="1">
          <mxGeometry x="-561" y="530" width="100" height="30" as="geometry" />
        </mxCell>
        <mxCell id="_lssu2MTOu9yrgDferpI-69" value="Lógico" style="whiteSpace=wrap;html=1;fillColor=#f8cecc;strokeColor=#b85450;" vertex="1" parent="1">
          <mxGeometry x="-581" y="170" width="100" height="30" as="geometry" />
        </mxCell>
        <mxCell id="_lssu2MTOu9yrgDferpI-70" value="" style="edgeStyle=entityRelationEdgeStyle;fontSize=12;html=1;endArrow=ERoneToMany;rounded=0;entryX=1;entryY=0.5;entryDx=0;entryDy=0;exitX=0;exitY=0.5;exitDx=0;exitDy=0;" edge="1" parent="1" source="_lssu2MTOu9yrgDferpI-17" target="_lssu2MTOu9yrgDferpI-76">
          <mxGeometry width="100" height="100" relative="1" as="geometry">
            <mxPoint x="-470" y="450" as="sourcePoint" />
            <mxPoint x="-461" y="310" as="targetPoint" />
          </mxGeometry>
        </mxCell>
        <mxCell id="_lssu2MTOu9yrgDferpI-79" value="" style="edgeStyle=entityRelationEdgeStyle;fontSize=12;html=1;endArrow=ERoneToMany;rounded=0;entryX=1;entryY=0.5;entryDx=0;entryDy=0;exitX=0;exitY=0.5;exitDx=0;exitDy=0;" edge="1" parent="1" source="_lssu2MTOu9yrgDferpI-17" target="_lssu2MTOu9yrgDferpI-2">
          <mxGeometry width="100" height="100" relative="1" as="geometry">
            <mxPoint x="-521" y="445" as="sourcePoint" />
            <mxPoint x="-381" y="440" as="targetPoint" />
          </mxGeometry>
        </mxCell>
        <mxCell id="_lssu2MTOu9yrgDferpI-138" value="Pessoa" style="shape=table;startSize=30;container=1;collapsible=0;childLayout=tableLayout;strokeColor=#b85450;fontSize=16;fontFamily=Helvetica;fillColor=#f8cecc;" vertex="1" parent="1">
          <mxGeometry x="-820" y="610" width="250" height="95" as="geometry" />
        </mxCell>
        <mxCell id="_lssu2MTOu9yrgDferpI-139" value="" style="shape=tableRow;horizontal=0;startSize=0;swimlaneHead=0;swimlaneBody=0;strokeColor=inherit;top=0;left=0;bottom=0;right=0;collapsible=0;dropTarget=0;fillColor=none;points=[[0,0.5],[1,0.5]];portConstraint=eastwest;fontSize=16;fontFamily=Helvetica;fontColor=default;" vertex="1" parent="_lssu2MTOu9yrgDferpI-138">
          <mxGeometry y="30" width="250" height="29" as="geometry" />
        </mxCell>
        <mxCell id="_lssu2MTOu9yrgDferpI-140" value="IdPessoa" style="shape=partialRectangle;html=1;whiteSpace=wrap;connectable=0;strokeColor=inherit;overflow=hidden;fillColor=none;top=0;left=0;bottom=0;right=0;pointerEvents=1;fontSize=16;fontFamily=Helvetica;fontColor=default;startSize=35;" vertex="1" parent="_lssu2MTOu9yrgDferpI-139">
          <mxGeometry width="83" height="29" as="geometry">
            <mxRectangle width="83" height="29" as="alternateBounds" />
          </mxGeometry>
        </mxCell>
        <mxCell id="_lssu2MTOu9yrgDferpI-141" value="Nome" style="shape=partialRectangle;html=1;whiteSpace=wrap;connectable=0;strokeColor=inherit;overflow=hidden;fillColor=none;top=0;left=0;bottom=0;right=0;pointerEvents=1;fontSize=16;fontFamily=Helvetica;fontColor=default;startSize=35;" vertex="1" parent="_lssu2MTOu9yrgDferpI-139">
          <mxGeometry x="83" width="84" height="29" as="geometry">
            <mxRectangle width="84" height="29" as="alternateBounds" />
          </mxGeometry>
        </mxCell>
        <mxCell id="_lssu2MTOu9yrgDferpI-142" value="CNH" style="shape=partialRectangle;html=1;whiteSpace=wrap;connectable=0;strokeColor=inherit;overflow=hidden;fillColor=none;top=0;left=0;bottom=0;right=0;pointerEvents=1;fontSize=16;fontFamily=Helvetica;fontColor=default;startSize=35;" vertex="1" parent="_lssu2MTOu9yrgDferpI-139">
          <mxGeometry x="167" width="83" height="29" as="geometry">
            <mxRectangle width="83" height="29" as="alternateBounds" />
          </mxGeometry>
        </mxCell>
        <mxCell id="_lssu2MTOu9yrgDferpI-143" value="" style="shape=tableRow;horizontal=0;startSize=0;swimlaneHead=0;swimlaneBody=0;strokeColor=inherit;top=0;left=0;bottom=0;right=0;collapsible=0;dropTarget=0;fillColor=none;points=[[0,0.5],[1,0.5]];portConstraint=eastwest;fontSize=16;fontFamily=Helvetica;fontColor=default;" vertex="1" parent="_lssu2MTOu9yrgDferpI-138">
          <mxGeometry y="59" width="250" height="36" as="geometry" />
        </mxCell>
        <mxCell id="_lssu2MTOu9yrgDferpI-144" value="2" style="shape=partialRectangle;html=1;whiteSpace=wrap;connectable=0;strokeColor=inherit;overflow=hidden;fillColor=none;top=0;left=0;bottom=0;right=0;pointerEvents=1;fontSize=16;fontFamily=Helvetica;fontColor=default;startSize=35;" vertex="1" parent="_lssu2MTOu9yrgDferpI-143">
          <mxGeometry width="83" height="36" as="geometry">
            <mxRectangle width="83" height="36" as="alternateBounds" />
          </mxGeometry>
        </mxCell>
        <mxCell id="_lssu2MTOu9yrgDferpI-145" value="Pedro" style="shape=partialRectangle;html=1;whiteSpace=wrap;connectable=0;strokeColor=inherit;overflow=hidden;fillColor=none;top=0;left=0;bottom=0;right=0;pointerEvents=1;fontSize=16;fontFamily=Helvetica;fontColor=default;startSize=35;" vertex="1" parent="_lssu2MTOu9yrgDferpI-143">
          <mxGeometry x="83" width="84" height="36" as="geometry">
            <mxRectangle width="84" height="36" as="alternateBounds" />
          </mxGeometry>
        </mxCell>
        <mxCell id="_lssu2MTOu9yrgDferpI-146" value="4444" style="shape=partialRectangle;html=1;whiteSpace=wrap;connectable=0;strokeColor=inherit;overflow=hidden;fillColor=none;top=0;left=0;bottom=0;right=0;pointerEvents=1;fontSize=16;fontFamily=Helvetica;fontColor=default;startSize=35;" vertex="1" parent="_lssu2MTOu9yrgDferpI-143">
          <mxGeometry x="167" width="83" height="36" as="geometry">
            <mxRectangle width="83" height="36" as="alternateBounds" />
          </mxGeometry>
        </mxCell>
        <mxCell id="_lssu2MTOu9yrgDferpI-151" value="Telefone" style="shape=table;startSize=30;container=1;collapsible=0;childLayout=tableLayout;strokeColor=#b85450;fontSize=16;fontFamily=Helvetica;fillColor=#f8cecc;" vertex="1" parent="1">
          <mxGeometry x="-521" y="610" width="251" height="110" as="geometry" />
        </mxCell>
        <mxCell id="_lssu2MTOu9yrgDferpI-152" value="" style="shape=tableRow;horizontal=0;startSize=0;swimlaneHead=0;swimlaneBody=0;strokeColor=inherit;top=0;left=0;bottom=0;right=0;collapsible=0;dropTarget=0;fillColor=none;points=[[0,0.5],[1,0.5]];portConstraint=eastwest;fontSize=16;fontFamily=Helvetica;fontColor=default;" vertex="1" parent="_lssu2MTOu9yrgDferpI-151">
          <mxGeometry y="30" width="251" height="40" as="geometry" />
        </mxCell>
        <mxCell id="_lssu2MTOu9yrgDferpI-153" value="IdTelefone" style="shape=partialRectangle;html=1;whiteSpace=wrap;connectable=0;strokeColor=inherit;overflow=hidden;fillColor=none;top=0;left=0;bottom=0;right=0;pointerEvents=1;fontSize=16;fontFamily=Helvetica;fontColor=default;startSize=35;" vertex="1" parent="_lssu2MTOu9yrgDferpI-152">
          <mxGeometry width="84" height="40" as="geometry">
            <mxRectangle width="84" height="40" as="alternateBounds" />
          </mxGeometry>
        </mxCell>
        <mxCell id="_lssu2MTOu9yrgDferpI-154" value="IdPessoa" style="shape=partialRectangle;html=1;whiteSpace=wrap;connectable=0;strokeColor=inherit;overflow=hidden;fillColor=none;top=0;left=0;bottom=0;right=0;pointerEvents=1;fontSize=16;fontFamily=Helvetica;fontColor=default;startSize=35;" vertex="1" parent="_lssu2MTOu9yrgDferpI-152">
          <mxGeometry x="84" width="83" height="40" as="geometry">
            <mxRectangle width="83" height="40" as="alternateBounds" />
          </mxGeometry>
        </mxCell>
        <mxCell id="_lssu2MTOu9yrgDferpI-155" value="Número" style="shape=partialRectangle;html=1;whiteSpace=wrap;connectable=0;strokeColor=inherit;overflow=hidden;fillColor=none;top=0;left=0;bottom=0;right=0;pointerEvents=1;fontSize=16;fontFamily=Helvetica;fontColor=default;startSize=35;" vertex="1" parent="_lssu2MTOu9yrgDferpI-152">
          <mxGeometry x="167" width="84" height="40" as="geometry">
            <mxRectangle width="84" height="40" as="alternateBounds" />
          </mxGeometry>
        </mxCell>
        <mxCell id="_lssu2MTOu9yrgDferpI-156" value="" style="shape=tableRow;horizontal=0;startSize=0;swimlaneHead=0;swimlaneBody=0;strokeColor=inherit;top=0;left=0;bottom=0;right=0;collapsible=0;dropTarget=0;fillColor=none;points=[[0,0.5],[1,0.5]];portConstraint=eastwest;fontSize=16;fontFamily=Helvetica;fontColor=default;" vertex="1" parent="_lssu2MTOu9yrgDferpI-151">
          <mxGeometry y="70" width="251" height="40" as="geometry" />
        </mxCell>
        <mxCell id="_lssu2MTOu9yrgDferpI-157" value="4" style="shape=partialRectangle;html=1;whiteSpace=wrap;connectable=0;strokeColor=inherit;overflow=hidden;fillColor=none;top=0;left=0;bottom=0;right=0;pointerEvents=1;fontSize=16;fontFamily=Helvetica;fontColor=default;startSize=35;" vertex="1" parent="_lssu2MTOu9yrgDferpI-156">
          <mxGeometry width="84" height="40" as="geometry">
            <mxRectangle width="84" height="40" as="alternateBounds" />
          </mxGeometry>
        </mxCell>
        <mxCell id="_lssu2MTOu9yrgDferpI-158" value="2" style="shape=partialRectangle;html=1;whiteSpace=wrap;connectable=0;strokeColor=inherit;overflow=hidden;fillColor=none;top=0;left=0;bottom=0;right=0;pointerEvents=1;fontSize=16;fontFamily=Helvetica;fontColor=default;startSize=35;" vertex="1" parent="_lssu2MTOu9yrgDferpI-156">
          <mxGeometry x="84" width="83" height="40" as="geometry">
            <mxRectangle width="83" height="40" as="alternateBounds" />
          </mxGeometry>
        </mxCell>
        <mxCell id="_lssu2MTOu9yrgDferpI-159" value="95555" style="shape=partialRectangle;html=1;whiteSpace=wrap;connectable=0;strokeColor=inherit;overflow=hidden;fillColor=none;top=0;left=0;bottom=0;right=0;pointerEvents=1;fontSize=16;fontFamily=Helvetica;fontColor=default;startSize=35;" vertex="1" parent="_lssu2MTOu9yrgDferpI-156">
          <mxGeometry x="167" width="84" height="40" as="geometry">
            <mxRectangle width="84" height="40" as="alternateBounds" />
          </mxGeometry>
        </mxCell>
        <mxCell id="_lssu2MTOu9yrgDferpI-164" value="Email" style="shape=table;startSize=30;container=1;collapsible=0;childLayout=tableLayout;strokeColor=#b85450;fontSize=16;fontFamily=Helvetica;fillColor=#f8cecc;" vertex="1" parent="1">
          <mxGeometry x="-790" y="750" width="450" height="110" as="geometry" />
        </mxCell>
        <mxCell id="_lssu2MTOu9yrgDferpI-165" value="" style="shape=tableRow;horizontal=0;startSize=0;swimlaneHead=0;swimlaneBody=0;strokeColor=inherit;top=0;left=0;bottom=0;right=0;collapsible=0;dropTarget=0;fillColor=none;points=[[0,0.5],[1,0.5]];portConstraint=eastwest;fontSize=16;fontFamily=Helvetica;fontColor=default;" vertex="1" parent="_lssu2MTOu9yrgDferpI-164">
          <mxGeometry y="30" width="450" height="40" as="geometry" />
        </mxCell>
        <mxCell id="_lssu2MTOu9yrgDferpI-166" value="IdEmail" style="shape=partialRectangle;html=1;whiteSpace=wrap;connectable=0;strokeColor=inherit;overflow=hidden;fillColor=none;top=0;left=0;bottom=0;right=0;pointerEvents=1;fontSize=16;fontFamily=Helvetica;fontColor=default;startSize=35;" vertex="1" parent="_lssu2MTOu9yrgDferpI-165">
          <mxGeometry width="149" height="40" as="geometry">
            <mxRectangle width="149" height="40" as="alternateBounds" />
          </mxGeometry>
        </mxCell>
        <mxCell id="_lssu2MTOu9yrgDferpI-167" value="IdPessoa" style="shape=partialRectangle;html=1;whiteSpace=wrap;connectable=0;strokeColor=inherit;overflow=hidden;fillColor=none;top=0;left=0;bottom=0;right=0;pointerEvents=1;fontSize=16;fontFamily=Helvetica;fontColor=default;startSize=35;" vertex="1" parent="_lssu2MTOu9yrgDferpI-165">
          <mxGeometry x="149" width="152" height="40" as="geometry">
            <mxRectangle width="152" height="40" as="alternateBounds" />
          </mxGeometry>
        </mxCell>
        <mxCell id="_lssu2MTOu9yrgDferpI-168" value="EndereçoEmail" style="shape=partialRectangle;html=1;whiteSpace=wrap;connectable=0;strokeColor=inherit;overflow=hidden;fillColor=none;top=0;left=0;bottom=0;right=0;pointerEvents=1;fontSize=16;fontFamily=Helvetica;fontColor=default;startSize=35;" vertex="1" parent="_lssu2MTOu9yrgDferpI-165">
          <mxGeometry x="301" width="149" height="40" as="geometry">
            <mxRectangle width="149" height="40" as="alternateBounds" />
          </mxGeometry>
        </mxCell>
        <mxCell id="_lssu2MTOu9yrgDferpI-169" value="" style="shape=tableRow;horizontal=0;startSize=0;swimlaneHead=0;swimlaneBody=0;strokeColor=inherit;top=0;left=0;bottom=0;right=0;collapsible=0;dropTarget=0;fillColor=none;points=[[0,0.5],[1,0.5]];portConstraint=eastwest;fontSize=16;fontFamily=Helvetica;fontColor=default;" vertex="1" parent="_lssu2MTOu9yrgDferpI-164">
          <mxGeometry y="70" width="450" height="40" as="geometry" />
        </mxCell>
        <mxCell id="_lssu2MTOu9yrgDferpI-170" value="6" style="shape=partialRectangle;html=1;whiteSpace=wrap;connectable=0;strokeColor=inherit;overflow=hidden;fillColor=none;top=0;left=0;bottom=0;right=0;pointerEvents=1;fontSize=16;fontFamily=Helvetica;fontColor=default;startSize=35;" vertex="1" parent="_lssu2MTOu9yrgDferpI-169">
          <mxGeometry width="149" height="40" as="geometry">
            <mxRectangle width="149" height="40" as="alternateBounds" />
          </mxGeometry>
        </mxCell>
        <mxCell id="_lssu2MTOu9yrgDferpI-171" value="2" style="shape=partialRectangle;html=1;whiteSpace=wrap;connectable=0;strokeColor=inherit;overflow=hidden;fillColor=none;top=0;left=0;bottom=0;right=0;pointerEvents=1;fontSize=16;fontFamily=Helvetica;fontColor=default;startSize=35;" vertex="1" parent="_lssu2MTOu9yrgDferpI-169">
          <mxGeometry x="149" width="152" height="40" as="geometry">
            <mxRectangle width="152" height="40" as="alternateBounds" />
          </mxGeometry>
        </mxCell>
        <mxCell id="_lssu2MTOu9yrgDferpI-172" value="pedro@gmail.com" style="shape=partialRectangle;html=1;whiteSpace=wrap;connectable=0;strokeColor=inherit;overflow=hidden;fillColor=none;top=0;left=0;bottom=0;right=0;pointerEvents=1;fontSize=16;fontFamily=Helvetica;fontColor=default;startSize=35;" vertex="1" parent="_lssu2MTOu9yrgDferpI-169">
          <mxGeometry x="301" width="149" height="40" as="geometry">
            <mxRectangle width="149" height="40" as="alternateBounds" />
          </mxGeometry>
        </mxCell>
      </root>
    </mxGraphModel>
  </diagram>
</mxfile>
